<?xml version="1.0" encoding="UTF-8"?>
<svg id="Layer_1" data-name="Layer 1" xmlns="http://www.w3.org/2000/svg" viewBox="0 0 112.96 112.53">
  <defs>
    <style>
      .cls-1 {
        fill: #17b2e7;
      }
    </style>
  </defs>
  <path class="cls-1" d="M112.96,57.2c-.36,1.18-1.16,2.05-2.02,2.9-5.73,5.71-11.44,11.44-17.16,17.16-2.06,2.06-4.26,2.06-6.33-.01-5.9-5.91-11.8-11.81-17.7-17.72-2.01-2.01-2.01-4.21,0-6.23,5.93-5.94,11.87-11.88,17.8-17.82,1.93-1.93,4.2-1.93,6.13,0,5.75,5.75,11.5,11.52,17.26,17.26,.86,.85,1.65,1.72,2.01,2.9v1.55Z"/>
  <path class="cls-1" d="M56.08,112.53c-1.18-.37-2.03-1.19-2.88-2.04-5.71-5.73-11.43-11.45-17.15-17.18-2.05-2.05-2.05-4.23,0-6.28,5.92-5.92,11.83-11.84,17.75-17.76,1.97-1.97,4.22-1.98,6.18-.02,5.92,5.92,11.83,11.84,17.75,17.77,2.03,2.04,2.04,4.26,.01,6.29-5.77,5.77-11.54,11.54-17.29,17.32-.82,.83-1.67,1.57-2.82,1.9h-1.55Z"/>
  <path class="cls-1" d="M35.32,42.23c0-6.58,.06-13.17-.04-19.75-.03-1.91,.43-3.4,1.88-4.65,1.17-1.01,2.21-2.18,3.31-3.28,4.34-4.34,8.67-8.68,13.01-13.02,2.04-2.04,4.24-2.04,6.28,0,5.9,5.9,11.8,11.81,17.7,17.71,2.03,2.03,2.03,4.26,0,6.29-6.98,6.99-13.96,13.97-20.94,20.96-6.16,6.17-12.33,12.34-18.49,18.51-1.14,1.14-2.15,.88-2.57-.71-.13-.49-.14-1.02-.14-1.53,0-6.84,0-13.69,0-20.53Z"/>
  <path class="cls-1" d="M21.2,56.5c0,6.04,0,12.09-.01,18.13,0,.57-.09,1.18-.3,1.71-.4,1.05-1.16,1.18-1.95,.39-2.78-2.77-5.55-5.56-8.32-8.33-3.21-3.21-6.41-6.42-9.62-9.64-1.33-1.33-1.33-3.17-.01-4.51,5.9-5.97,11.8-11.94,17.71-17.9,.39-.4,.76-.93,1.42-.68,.63,.24,.88,.81,.97,1.45,.06,.39,.1,.79,.1,1.19,0,6.07,0,12.13,0,18.2,0,0,0,0,0,0Z"/>
</svg>